<?xml version="1.0" standalone="no"?>
<!DOCTYPE svg PUBLIC "-//W3C//DTD SVG 20010904//EN"
 "http://www.w3.org/TR/2001/REC-SVG-20010904/DTD/svg10.dtd">
<svg version="1.0" xmlns="http://www.w3.org/2000/svg"
 width="260.000000pt" height="260.000000pt" viewBox="0 0 260.000000 260.000000"
 preserveAspectRatio="xMidYMid meet">
<metadata>
Created by potrace 1.11, written by Peter Selinger 2001-2013
</metadata>
<g transform="translate(0.000000,260.000000) scale(0.100000,-0.100000)"
fill="#000000" stroke="none">
<path d="M1515 1940 c-294 -59 -576 -390 -576 -677 0 -143 64 -230 206 -278
51 -17 162 -23 227 -12 100 18 232 88 317 170 29 29 48 42 42 30 -6 -12 -23
-54 -37 -95 -90 -249 -242 -462 -383 -537 -143 -75 -301 -60 -345 33 -9 19
-16 56 -16 82 0 36 -3 45 -12 36 -17 -17 -13 -104 7 -146 21 -43 69 -79 138
-102 159 -53 385 57 505 244 47 73 89 178 132 330 69 244 84 290 110 342 34
68 60 91 105 99 20 3 37 10 38 15 1 6 -103 10 -258 10 -294 1 -316 -3 -335
-60 -10 -29 -8 -39 12 -76 30 -54 45 -59 40 -13 -10 86 62 117 261 113 l125
-3 -21 -51 c-84 -195 -219 -332 -373 -377 -67 -20 -194 -19 -245 1 -161 63
-186 281 -58 520 119 224 318 377 496 383 91 3 104 0 139 -35 32 -32 34 -39
34 -97 0 -37 -6 -76 -15 -92 -13 -26 -13 -28 3 -25 9 2 34 37 56 79 37 71 39
78 26 108 -30 73 -194 111 -345 81z"/>
<path d="M948 1497 c-34 -15 -96 -74 -262 -250 -71 -75 -132 -137 -135 -137
-4 0 -8 70 -10 155 l-2 155 28 26 28 27 -120 -6 c-118 -5 -172 -17 -187 -40
-14 -21 -8 -54 13 -81 26 -33 45 -34 23 -1 -36 55 15 94 133 100 l77 3 -33
-25 c-20 -16 -47 -56 -69 -102 -114 -243 -222 -352 -308 -312 -15 7 -27 22
-31 41 -3 17 -10 33 -14 36 -12 7 -11 -1 3 -47 29 -100 154 -95 236 9 33 42
82 136 137 264 20 48 43 93 51 99 11 9 13 9 10 -2 -3 -8 -7 -89 -10 -180 -2
-96 -9 -176 -15 -188 -7 -12 -8 -21 -3 -21 7 0 61 56 270 279 l44 46 -52 -105
c-104 -207 -110 -270 -30 -270 37 0 47 6 96 56 30 31 54 61 54 67 0 7 -20 -11
-45 -40 -25 -28 -58 -56 -74 -61 -26 -9 -30 -8 -35 11 -7 29 34 145 100 278
69 140 108 197 139 205 14 3 25 10 25 15 0 11 2 11 -32 -4z"/>
<path d="M2140 1493 c-118 -7 -150 -14 -166 -38 -13 -21 -13 -27 0 -59 19 -46
31 -46 31 1 0 33 4 40 35 55 34 16 120 30 120 20 0 -3 -13 -17 -30 -31 -16
-14 -71 -100 -121 -191 -50 -91 -109 -189 -131 -218 -28 -38 -34 -51 -20 -43
12 6 31 11 44 11 19 0 32 18 81 115 l58 114 42 -79 c67 -127 120 -172 183
-156 27 7 124 101 124 120 0 6 -20 -10 -44 -35 -24 -26 -56 -49 -70 -51 -50
-10 -115 52 -173 165 -28 56 -35 45 77 121 78 52 205 117 279 141 42 14 58 15
73 6 29 -18 35 -12 9 9 -35 30 -89 25 -163 -13 -63 -33 -233 -144 -298 -195
l-34 -27 23 40 c13 22 31 54 39 70 32 64 76 117 106 131 17 7 29 14 26 15 -12
3 -58 4 -100 2z"/>
</g>
</svg>
